<svg width="22" height="32" viewBox="0 0 22 32" fill="none" xmlns="http://www.w3.org/2000/svg">
<g clip-path="url(#clip0_496_278)">
<path d="M11.4286 10.6667H5.33333C2.38781 10.6667 0 8.27886 0 5.33333C0 2.38781 2.38781 0 5.33333 0H11.4286V10.6667Z" fill="#E64A19"/>
<path d="M10.6667 21.3332H5.33333C2.38781 21.3332 0 18.9454 0 15.9999C0 13.0543 2.38781 10.6665 5.33333 10.6665H10.6667V21.3332Z" fill="#7C4DFF"/>
<path d="M5.33333 32.0001C2.38781 32.0001 0 29.6123 0 26.6668C0 23.7213 2.38781 21.3335 5.33333 21.3335H10.6667V26.6668C10.6667 29.6123 8.27886 32.0001 5.33333 32.0001Z" fill="#66BB6A"/>
<path d="M15.9999 10.6667H10.6665V0H15.9999C18.9454 0 21.3332 2.38781 21.3332 5.33333C21.3332 8.27886 18.9454 10.6667 15.9999 10.6667Z" fill="#FF7043"/>
<path d="M15.9999 21.3332C18.9454 21.3332 21.3332 18.9454 21.3332 15.9999C21.3332 13.0543 18.9454 10.6665 15.9999 10.6665C13.0544 10.6665 10.6665 13.0543 10.6665 15.9999C10.6665 18.9454 13.0544 21.3332 15.9999 21.3332Z" fill="#29B6F6"/>
</g>
<defs>
<clipPath id="clip0_496_278">
<rect width="22" height="32" fill="white"/>
</clipPath>
</defs>
</svg>
