<svg width="32" height="32" viewBox="0 0 32 32" fill="none" xmlns="http://www.w3.org/2000/svg">
<g clip-path="url(#clip0_496_243)">
<path d="M16.4075 6.16141e-05C15.0981 0.00427212 14.1903 0.11964 13.0931 0.309113C9.85276 0.873322 9.26246 2.05816 9.26246 4.24173V7.57898H16.8412V9.26319H8.97447H5.3114C3.09167 9.26319 1.14898 10.3091 0.533419 12.816C-0.162142 15.6935 -0.1933 17.4956 0.533419 20.5002C1.08498 22.741 2.30011 24.421 4.52069 24.421H7.57913V20.1229C7.57913 17.6253 9.84097 15.1579 12.4329 15.1579H18.5262C20.6508 15.1579 22.7366 13.5899 22.7366 11.472V4.24173C22.7366 2.18784 21.2554 0.651848 19.1847 0.307429C19.2361 0.302376 17.706 -0.004991 16.4075 6.16141e-05ZM12.2106 3.36847C12.9019 3.36847 13.4737 3.93857 13.4737 4.63331C13.4737 5.33478 12.9019 5.89478 12.2106 5.89478C11.5058 5.89478 10.9475 5.33562 10.9475 4.63331C10.9475 3.9411 11.5058 3.36847 12.2106 3.36847Z" fill="#0277BD"/>
<path d="M15.5916 32C16.901 31.9958 17.8088 31.8805 18.906 31.691C22.1463 31.1268 22.7366 29.9419 22.7366 27.7584V24.4211H15.1579V22.7369H23.0255H26.6885C28.9083 22.7369 30.851 21.691 31.4665 19.1841C32.1621 16.3066 32.1932 14.5045 31.4665 11.4999C30.9141 9.25909 29.699 7.5791 27.4784 7.5791H24.42V11.8772C24.42 14.3748 22.1581 16.8422 19.5662 16.8422H13.4729C11.3483 16.8422 9.26245 18.4102 9.26245 20.5281V27.7584C9.26245 29.8123 10.7437 31.3483 12.8144 31.6927C12.763 31.6977 14.2931 32.0051 15.5916 32ZM19.7893 28.6316C19.098 28.6316 18.5262 28.0615 18.5262 27.3668C18.5262 26.6653 19.098 26.1053 19.7893 26.1053C20.4942 26.1053 21.0525 26.6645 21.0525 27.3668C21.0525 28.059 20.4933 28.6316 19.7893 28.6316Z" fill="#FFC107"/>
</g>
<defs>
<clipPath id="clip0_496_243">
<rect width="32" height="32" fill="white"/>
</clipPath>
</defs>
</svg>
