<svg width="24" height="24" viewBox="0 0 24 24" fill="none" xmlns="http://www.w3.org/2000/svg">
<path d="M12 0C5.373 0 0 5.45713 0 12.1879C0 17.899 3.872 22.6776 9.09202 24C9.036 23.8354 9 23.6445 9 23.4079V21.3248C8.51303 21.3248 7.69703 21.3248 7.492 21.3248C6.671 21.3248 5.941 20.9663 5.587 20.2999C5.194 19.5596 5.126 18.427 4.152 17.7344C3.863 17.5039 4.083 17.2408 4.416 17.2763C5.031 17.4531 5.541 17.8817 6.021 18.5175C6.499 19.1543 6.724 19.2985 7.617 19.2985C8.04998 19.2985 8.69798 19.2731 9.30803 19.1756C9.636 18.3295 10.203 17.5506 10.896 17.1829C6.9 16.7655 4.993 14.7463 4.993 12.0051C4.993 10.8249 5.488 9.68325 6.329 8.72145C6.053 7.76678 5.706 5.81972 6.435 5.07829C8.23298 5.07829 9.32003 6.26255 9.58103 6.58248C10.477 6.27067 11.461 6.09395 12.495 6.09395C13.531 6.09395 14.519 6.27068 15.417 6.58451C15.675 6.26661 16.763 5.07829 18.565 5.07829C19.297 5.82073 18.946 7.77585 18.667 8.72857C19.503 9.68835 19.995 10.8269 19.995 12.0051C19.995 14.7443 18.091 16.7624 14.101 17.1819C15.199 17.7638 16 19.399 16 20.6311V23.4079C16 23.5135 15.977 23.5897 15.965 23.68C20.641 22.0154 24 17.5059 24 12.1879C24 5.45713 18.627 0 12 0Z" fill="white"/>
</svg>
