<svg width="24" height="24" viewBox="0 0 24 24" fill="none" xmlns="http://www.w3.org/2000/svg">
<path d="M12.0152 0C5.40739 0 0.028184 5.37457 0.0257838 11.9824C0.0245836 14.0946 0.577819 16.1567 1.62672 17.9736L0 24.0023L6.27952 22.5186C8.03049 23.4739 10.0016 23.9754 12.0082 23.9766H12.0129C18.6195 23.9766 23.9964 18.6008 24 11.9941C24.0024 8.79103 22.7568 5.77944 20.4934 3.51362C18.23 1.249 15.2219 0.00120012 12.0152 0ZM12.0129 2.40023C14.5763 2.40143 16.9854 3.40089 18.7964 5.21066C20.6073 7.02284 21.6022 9.43075 21.5998 11.9918C21.5974 17.2771 17.2983 21.5763 12.0105 21.5763C10.4108 21.5751 8.82615 21.1734 7.43041 20.4114L6.62174 19.9707L5.72868 20.1817L3.36595 20.7395L3.94257 18.5971L4.20275 17.6361L3.70583 16.7735C2.86815 15.3238 2.42482 13.6662 2.42602 11.9824C2.42842 6.6995 6.72877 2.40023 12.0129 2.40023ZM7.77263 6.45063C7.57221 6.45063 7.24816 6.52564 6.97334 6.82567C6.69851 7.12449 5.92323 7.84826 5.92323 9.322C5.92323 10.7957 6.99678 12.2203 7.14679 12.4207C7.29561 12.62 9.219 15.7398 12.2637 16.9399C14.7935 17.9372 15.3074 17.7404 15.857 17.69C16.4067 17.6408 17.6302 16.9669 17.8799 16.2672C18.1295 15.5675 18.1301 14.9657 18.0557 14.8421C17.9813 14.7173 17.7814 14.6428 17.4814 14.4928C17.1826 14.3428 15.7099 13.6197 15.4351 13.5201C15.1603 13.4205 14.9593 13.3701 14.76 13.6701C14.5608 13.9701 13.9883 14.6429 13.8131 14.8421C13.6378 15.0425 13.4638 15.0694 13.1638 14.9194C12.8638 14.7682 11.8991 14.4511 10.7542 13.431C9.86369 12.6377 9.26282 11.6589 9.0876 11.3589C8.91359 11.0601 9.0712 10.896 9.22121 10.7471C9.35562 10.6127 9.5189 10.3973 9.66891 10.2221C9.81773 10.0469 9.86933 9.92204 9.96894 9.72282C10.0686 9.5236 10.0176 9.34779 9.94316 9.19777C9.86875 9.04776 9.28606 7.56854 9.01963 6.97568C8.79521 6.47763 8.55818 6.46606 8.34456 6.45766C8.17055 6.45046 7.97185 6.45063 7.77263 6.45063Z" fill="white"/>
</svg>
