<svg width="31" height="32" viewBox="0 0 31 32" fill="none" xmlns="http://www.w3.org/2000/svg">
<path fill-rule="evenodd" clip-rule="evenodd" d="M14.1893 0.218203C14.7275 -0.0720832 15.3901 -0.0720832 15.9274 0.218203C18.5865 1.65287 26.5883 5.97135 29.2481 7.40601C29.7863 7.69554 30.1176 8.23192 30.1176 8.81249C30.1176 11.6818 30.1176 20.318 30.1176 23.1874C30.1176 23.7679 29.7863 24.3043 29.2481 24.5946C26.5891 26.0293 18.5873 30.3477 15.9274 31.7824C15.3893 32.0727 14.7267 32.0727 14.1893 31.7824C11.5303 30.3477 3.52851 26.0293 0.868654 24.5946C0.331293 24.3043 0 23.7687 0 23.1881C0 20.3188 0 11.6826 0 8.81325C0 8.23268 0.331293 7.6963 0.869447 7.40601C3.52772 5.97135 11.5311 1.65287 14.1893 0.218203Z" fill="#283593"/>
<path fill-rule="evenodd" clip-rule="evenodd" d="M0.24094 23.9271C0.0301175 23.6558 0 23.3983 0 23.0517C0 20.1991 0 11.6124 0 8.75907C0 8.18155 0.330501 7.64822 0.867069 7.36022C3.51662 5.93393 11.4914 1.6406 14.141 0.213548C14.6776 -0.075214 15.4043 -0.0691187 15.9409 0.219643C18.5905 1.64593 26.5383 5.90269 29.1879 7.32898C29.4019 7.44479 29.5651 7.58422 29.711 7.76784L0.24094 23.9271Z" fill="#5C6BC0"/>
<path fill-rule="evenodd" clip-rule="evenodd" d="M15.0588 5.3335C21.183 5.3335 26.1548 10.1129 26.1548 16.0002C26.1548 21.8874 21.183 26.6668 15.0588 26.6668C8.93467 26.6668 3.96289 21.8874 3.96289 16.0002C3.96289 10.1129 8.93467 5.3335 15.0588 5.3335ZM15.0588 10.6668C18.1205 10.6668 20.6068 13.0562 20.6068 16.0002C20.6068 18.9434 18.1205 21.3335 15.0588 21.3335C11.9971 21.3335 9.51086 18.9434 9.51086 16.0002C9.51086 13.0562 11.9964 10.6668 15.0588 10.6668Z" fill="white"/>
<path fill-rule="evenodd" clip-rule="evenodd" d="M29.7095 7.77539C30.1185 8.14339 30.1106 8.69806 30.1106 9.13463C30.1106 12.0261 30.0852 20.2501 30.1177 23.1415C30.1209 23.4432 30.017 23.7609 29.8617 24.0002L14.7363 16.0002L29.7095 7.77539Z" fill="#3949AB"/>
</svg>
