<svg width="26" height="23" viewBox="0 0 26 23" fill="none" xmlns="http://www.w3.org/2000/svg">
<path d="M0 6.88857H5.79622V18.0268V23H0V6.88857ZM2.89811 5.25445C1.15966 5.25445 0 4.06353 0 2.59232C0 1.12111 1.15966 0 2.89811 0C4.63656 0 5.724 1.12111 5.79622 2.59232C5.79622 4.06353 4.70982 5.25445 2.89811 5.25445ZM25.1473 23H19.4243C19.4243 23 19.4243 14.6321 19.4243 14.0099C19.4243 13.3876 19.3532 11.2435 16.9208 11.2435C14.7752 11.2435 14.4173 13.249 14.4173 14.0099C14.4173 14.7708 14.4173 23 14.4173 23H8.69433V7.09498H14.4173V9.23906C14.4173 9.23906 15.5623 7.09498 18.9241 7.09498C22.358 7.09498 25.1473 9.37667 25.1473 14.0099V23Z" fill="white"/>
</svg>
