<svg width="32" height="32" viewBox="0 0 32 32" fill="none" xmlns="http://www.w3.org/2000/svg">
<g clip-path="url(#clip0_496_248)">
<path d="M9.7898 31.1567C9.1054 31.1567 8.4822 30.9878 7.937 30.6551C7.025 30.0977 6.3946 29.1374 6.0626 27.8017C5.6766 26.247 5.7226 24.182 6.1954 21.8201C2.3826 20.4068 0.200195 18.2384 0.200195 15.8545C0.200195 13.4701 2.3822 11.3021 6.195 9.88928C5.7222 7.52689 5.6758 5.46191 6.0618 3.90724C6.3938 2.57111 7.0242 1.61082 7.9358 1.05395C8.4806 0.721203 9.1042 0.552246 9.7886 0.552246C11.5438 0.552246 13.745 1.72891 16.001 3.87018C18.257 1.73107 20.4574 0.555263 22.2106 0.555263C22.895 0.555263 23.5182 0.72422 24.0634 1.05696C24.9742 1.6134 25.605 2.57197 25.937 3.90638C26.3234 5.46061 26.277 7.52603 25.8038 9.8888C29.6174 11.3016 31.8002 13.4701 31.8002 15.8545C31.8002 18.2389 29.6174 20.4073 25.8038 21.8205C26.2766 24.1829 26.323 26.2479 25.9366 27.8021C25.6046 29.137 24.9746 30.0955 24.0646 30.652C23.519 30.9848 22.8954 31.1537 22.2114 31.1537C20.457 31.1537 18.2558 29.9779 16.0006 27.8396C13.7446 29.9804 11.5438 31.1567 9.7898 31.1567ZM7.735 22.3223C7.3386 24.3553 7.2942 26.0923 7.6086 27.356C7.8254 28.2293 8.201 28.8348 8.7262 29.1555C9.0274 29.3396 9.3854 29.433 9.7898 29.433C11.1474 29.433 12.9346 28.4495 14.8382 26.6586C13.8842 25.6234 12.953 24.4514 12.067 23.1713C10.5346 22.992 9.0786 22.7067 7.735 22.3223ZM17.1626 26.6578C19.0658 28.447 20.8534 29.4296 22.211 29.43C22.6154 29.43 22.9734 29.3366 23.2754 29.1525C23.799 28.8327 24.1738 28.2284 24.3902 27.3564C24.7046 26.0919 24.6606 24.3553 24.2642 22.3226C22.9194 22.7071 21.463 22.9925 19.931 23.1718C19.0454 24.4519 18.1154 25.6234 17.1626 26.6578ZM14.2266 23.3511C14.8074 24.1166 15.4018 24.8308 16.0002 25.4803C16.597 24.8312 17.1918 24.117 17.7722 23.3511C17.1758 23.3816 16.5818 23.3972 16.0002 23.3972C15.4182 23.3972 14.8238 23.3816 14.2266 23.3511ZM12.9398 21.5348C13.9378 21.6266 14.967 21.6731 16.0002 21.6731C17.0342 21.6731 18.0622 21.6266 19.0586 21.5352C19.653 20.637 20.2198 19.6956 20.7442 18.7358C21.2514 17.807 21.7286 16.8376 22.163 15.8541C21.7298 14.873 21.253 13.9041 20.7446 12.9731C20.2214 12.0154 19.6546 11.0742 19.0586 10.1737C18.063 10.0824 17.035 10.0358 16.0002 10.0358C14.965 10.0358 13.9366 10.0824 12.9414 10.1742C12.3454 11.0733 11.7778 12.0146 11.2538 12.9736C10.7458 13.9041 10.269 14.873 9.8354 15.8553C10.2682 16.8354 10.745 17.8043 11.2534 18.7362C11.775 19.6909 12.3418 20.6318 12.9398 21.5348ZM22.9966 17.9143C22.7142 18.4945 22.4214 19.0634 22.1226 19.6099C21.8214 20.1624 21.501 20.7167 21.1682 21.2632C22.1178 21.1055 23.0262 20.9034 23.8766 20.6598C23.6406 19.7767 23.345 18.8556 22.9966 17.9143ZM8.1218 20.6594C8.9726 20.9025 9.8806 21.1051 10.829 21.2629C10.4942 20.7128 10.1738 20.1582 9.8746 19.6099C9.5766 19.0638 9.2834 18.4957 9.0014 17.9156C8.6546 18.8526 8.3594 19.7728 8.1218 20.6594ZM23.9266 15.8545C24.5378 17.316 25.0358 18.7607 25.4098 20.1547C28.3706 19.0324 30.2002 17.3949 30.2002 15.8545C30.2002 14.314 28.3706 12.6766 25.4098 11.5543C25.0366 12.9482 24.5382 14.3929 23.9266 15.8545ZM6.589 11.5551C3.6294 12.6771 1.8002 14.3145 1.8002 15.8545C1.8002 17.3949 3.6294 19.0324 6.5898 20.1543C6.9634 18.76 7.4614 17.3152 8.0718 15.8553C7.461 14.3951 6.963 12.9503 6.589 11.5551ZM8.1214 11.0495C8.359 11.9349 8.6542 12.8555 9.0014 13.7943C9.283 13.2158 9.5758 12.6473 9.875 12.0995C10.1758 11.5482 10.4962 10.994 10.8302 10.4462C9.8806 10.6035 8.9726 10.806 8.1214 11.0495ZM21.169 10.4457C21.5038 10.9961 21.8242 11.5504 22.1234 12.0995C22.4218 12.6456 22.715 13.2141 22.9974 13.7943C23.345 12.8559 23.6402 11.9352 23.8778 11.0491C23.0258 10.8056 22.1178 10.603 21.169 10.4457ZM9.7886 2.2763C9.3842 2.2763 9.0266 2.36939 8.7258 2.55387C8.201 2.87454 7.825 3.48011 7.6078 4.35334C7.2938 5.61837 7.3378 7.35491 7.7346 9.38714C9.0786 9.00267 10.5354 8.71691 12.0682 8.53761C12.955 7.25707 13.8862 6.08602 14.839 5.05158C12.935 3.25986 11.1466 2.2763 9.7886 2.2763ZM19.9314 8.53718C21.4634 8.71648 22.9198 9.00181 24.2646 9.38627C24.6614 7.35362 24.7058 5.61664 24.391 4.35205C24.1742 3.48055 23.799 2.87626 23.275 2.55645C22.9734 2.37242 22.6154 2.27888 22.2106 2.27888C20.8534 2.27888 19.0666 3.26202 17.163 5.05158C18.115 6.08558 19.0454 7.25707 19.9314 8.53718ZM16.0002 8.31176C16.5818 8.31176 17.1758 8.32728 17.7726 8.35788C17.1926 7.59326 16.5982 6.87951 16.001 6.22954C15.4022 6.88037 14.8082 7.59413 14.2282 8.35788C14.8246 8.32728 15.4186 8.31176 16.0002 8.31176Z" fill="#8BB7F0"/>
<path d="M9.7884 0.767781C11.586 0.767781 13.7868 2.02203 16.0012 4.15856C18.2152 2.02375 20.4148 0.770799 22.2108 0.770799C22.86 0.770799 23.4504 0.930273 23.9652 1.24448C24.8276 1.77118 25.426 2.68536 25.7436 3.96245C26.1744 5.65072 26.084 7.72949 25.57 10.0311C29.2588 11.359 31.6 13.4542 31.6 15.8545C31.6 18.2548 29.2588 20.3499 25.5696 21.6783C26.106 24.1666 26.196 26.3014 25.7432 27.7466C25.4256 29.0232 24.8276 29.9378 23.966 30.4646C23.4504 30.7791 22.982 30.9399 22.3332 30.9399H22.1664C20.3696 30.9399 18.2136 29.6857 16 27.5518C13.786 29.6878 11.586 30.9413 9.7892 30.9413C9.14 30.9413 8.5496 30.7818 8.0348 30.4676C7.1716 29.9396 6.5728 29.0241 6.2556 27.7461C5.7796 26.1441 5.8756 24.0381 6.4292 21.6779C2.7408 20.3496 0.4 18.2548 0.4 15.8545C0.4 13.4546 2.7408 11.3595 6.4288 10.0311C6.154 8.71263 5.9784 7.48856 5.9724 6.37223C5.9676 5.49038 6.0792 4.67016 6.2552 3.96287C6.5728 2.68449 7.1712 1.76902 8.0344 1.24147C8.5488 0.926825 9.1392 0.767781 9.7884 0.767781ZM7.5832 9.65396C8.974 9.24235 10.5184 8.93116 12.1764 8.74151C13.1292 7.35796 14.1264 6.11406 15.1308 5.0417C13.182 3.16852 11.2844 2.06039 9.7884 2.06039C9.3488 2.06039 8.9584 2.16297 8.6268 2.36598C8.0536 2.71639 7.646 3.36592 7.4144 4.29734C7.0712 5.67744 7.1492 7.54286 7.5832 9.65396ZM24.4156 9.65353C24.8496 7.54243 24.9276 5.67658 24.5844 4.29648C24.3532 3.36678 23.9456 2.71854 23.3736 2.36899C23.0416 2.16599 22.65 2.0634 22.2108 2.0634C20.716 2.0634 18.8196 3.17024 16.8712 5.0417C17.8752 6.11406 18.8712 7.35796 19.8232 8.74108C21.4804 8.93072 23.0248 9.24191 24.4156 9.65353ZM13.7908 8.59884C14.5116 8.55272 15.2344 8.51264 15.986 8.51264C16.7376 8.51264 17.488 8.55316 18.2088 8.59884C17.4856 7.61657 16.7432 6.7192 16.0004 5.92484C15.2576 6.7192 14.5148 7.61657 13.7908 8.59884ZM16 21.8887C17.1044 21.8887 18.1616 21.8365 19.1672 21.7413C19.7748 20.8288 20.3624 19.8599 20.916 18.8453C21.4572 17.8544 21.9468 16.8515 22.384 15.8545C21.9468 14.8576 21.4572 13.855 20.9164 12.8646C20.3624 11.8496 19.7752 10.8811 19.1672 9.96857C18.162 9.87247 17.1048 9.8203 16 9.8203C14.8952 9.8203 13.8376 9.87247 12.832 9.96818C12.2236 10.8807 11.6356 11.8496 11.0816 12.8642C10.5408 13.855 10.0512 14.858 9.614 15.8549C10.0512 16.8519 10.5404 17.8544 11.0812 18.8449C11.6352 19.8595 12.2228 20.8284 12.8308 21.7409C13.8368 21.8365 14.8948 21.8887 16 21.8887ZM23.0184 14.3084C23.4684 13.1408 23.8408 11.9944 24.1248 10.8978C23.1036 10.5953 21.9756 10.3453 20.7536 10.1621C21.1648 10.8203 21.5652 11.5025 21.9504 12.2086C22.332 12.9064 22.6868 13.608 23.0184 14.3084ZM8.9796 14.3089C9.3108 13.6085 9.666 12.9068 10.0468 12.2086C10.4324 11.5025 10.8332 10.8207 11.2448 10.1626C10.0228 10.3453 8.8948 10.5958 7.8736 10.8983C8.1576 11.9947 8.53 13.1408 8.9796 14.3089ZM25.2752 20.4328C28.5056 19.2535 30.4 17.5208 30.4 15.8545C30.4 14.1882 28.5056 12.4555 25.2752 11.2763C24.894 12.7439 24.3676 14.286 23.7072 15.854C24.3676 17.4225 24.894 18.9647 25.2752 20.4328ZM6.724 20.4323C7.1048 18.9651 7.6308 17.4229 8.2912 15.8554C7.6308 14.2873 7.1044 12.7447 6.7236 11.2772C3.4936 12.4564 1.6 14.1887 1.6 15.8545C1.6 17.5208 3.494 19.253 6.724 20.4323ZM20.7536 21.5468C21.9756 21.3642 23.1036 21.1142 24.1248 20.8111C23.8404 19.7147 23.468 18.5681 23.0184 17.4001C22.6868 18.1005 22.3316 18.8022 21.9504 19.5004C21.5652 20.2064 21.1648 20.8887 20.7536 21.5468ZM11.2436 21.5465C10.8324 20.8883 10.432 20.2064 10.0464 19.5009C9.6656 18.8031 9.3108 18.1018 8.9796 17.4019C8.53 18.569 8.158 19.7151 7.874 20.8111C8.8948 21.1133 10.0224 21.3633 11.2436 21.5465ZM9.7896 29.6482C11.2852 29.6482 13.182 28.5405 15.1304 26.6682C14.1252 25.5954 13.1284 24.351 12.1752 22.9671C10.518 22.7779 8.9744 22.4667 7.584 22.0551C7.1504 24.1662 7.0724 26.0316 7.4152 27.4117C7.6464 28.3427 8.0544 28.9922 8.6272 29.3426C8.9584 29.5456 9.35 29.6482 9.7896 29.6482ZM22.2108 29.6457C22.6504 29.6457 23.0412 29.5431 23.3736 29.34C23.9456 28.9904 24.3524 28.3422 24.5832 27.4121C24.9264 26.0316 24.8484 24.1662 24.4148 22.0555C23.024 22.4671 21.48 22.7783 19.8224 22.9675C18.8704 24.351 17.874 25.5949 16.87 26.6677C18.8184 28.5384 20.7152 29.6452 22.2108 29.6457ZM16 25.785C16.7428 24.9902 17.4852 24.0925 18.2088 23.1102C17.4884 23.1562 16.7852 23.2537 16.0332 23.2537C15.2808 23.2537 14.5104 23.1562 13.7896 23.1102C14.5136 24.0929 15.2568 24.9907 16 25.785ZM9.6464 0.369095C8.9268 0.369095 8.4124 0.514777 7.8372 0.866052C6.8776 1.45266 6.2152 2.45692 5.8688 3.85124C5.4848 5.39729 5.518 7.42951 5.9632 9.74796C2.1676 11.1948 0 13.4085 0 15.8545C0 18.301 2.168 20.5142 5.9636 21.9611C5.5184 24.2795 5.4852 26.3117 5.8696 27.8577C6.2156 29.2512 6.8776 30.2555 7.838 30.8429C8.414 31.1947 9.106 31.3443 9.8252 31.3443C11.62 31.3443 13.7264 30.2516 16.0004 28.1263C18.274 30.2495 20.416 31.3692 22.2104 31.3697C22.93 31.3697 23.5868 31.1916 24.1628 30.8399C25.1216 30.2542 25.7832 29.2512 26.1292 27.8586C26.5136 26.3121 26.4804 24.2799 26.0352 21.962C29.8316 20.5146 32 18.301 32 15.8545C32 13.4081 29.832 11.1944 26.0356 9.74748C26.4812 7.42865 26.514 5.39643 26.1296 3.85038C25.7832 2.45778 25.1212 1.45481 24.162 0.869069C23.5864 0.517794 22.9296 0.339355 22.2104 0.339355C20.4164 0.339355 18.2748 1.45955 16.0008 3.58359C13.7264 1.45783 11.5744 0.367802 9.7792 0.367802L9.6464 0.369095ZM7.888 9.1208C7.7032 8.11913 7.5792 7.18039 7.5724 6.35715C7.5664 5.61581 7.6608 4.97058 7.8004 4.40855C8.0032 3.59307 8.3476 3.03189 8.824 2.74052C9.0944 2.57502 9.424 2.46296 9.7932 2.46296C11.0656 2.46296 12.74 3.4017 14.5464 5.06368C13.658 6.04337 12.7896 7.14073 11.96 8.33291C10.526 8.50531 9.1588 8.76953 7.888 9.1208ZM17.4552 5.06455C19.2612 3.40385 20.9396 2.49441 22.2104 2.49441C22.58 2.49441 22.9052 2.57847 23.176 2.74397C23.6516 3.03448 23.9956 3.59436 24.198 4.40811C24.5476 5.6227 24.5024 7.23728 24.1108 9.12037C22.84 8.76953 21.4732 8.50489 20.0396 8.33334C19.2104 7.14159 18.3428 6.04423 17.4552 5.06455ZM14.6692 8.12215C15.1076 7.56183 15.5528 7.03168 16.0004 6.53688C16.448 7.03168 16.8928 7.56183 17.3308 8.12215C16.8832 8.10491 16.438 8.09628 16 8.09628C15.562 8.09628 15.1172 8.10491 14.6692 8.12215ZM13.05 10.3807C14.012 10.2949 15.0032 10.2337 16 10.2337C16.9964 10.2337 17.9876 10.2949 18.9492 10.3807C19.522 11.2509 20.0676 12.159 20.5716 13.0827C21.0604 13.9783 21.5208 14.9098 21.9408 15.854C21.5204 16.7988 21.06 17.7307 20.5712 18.6263C20.0668 19.5504 19.5216 20.4582 18.9488 21.3284C17.9876 21.4141 16.9964 21.5292 16 21.5292C15.0028 21.5292 14.0112 21.4137 13.0488 21.3279C12.4756 20.4582 11.93 19.55 11.4256 18.6259C10.9368 17.7307 10.4768 16.7993 10.0568 15.8545C10.4768 14.9098 10.9372 13.9779 11.426 13.0823C11.9308 12.1585 12.4768 11.2504 13.05 10.3807ZM22.9688 13.2788C22.7492 12.84 22.524 12.409 22.2956 11.9901C22.0676 11.5724 21.8288 11.1531 21.5816 10.7363C22.2912 10.8664 22.9756 11.0219 23.6272 11.2017C23.4404 11.8767 23.22 12.5715 22.9688 13.2788ZM8.3712 11.2017C9.0228 11.0219 9.7072 10.8664 10.4168 10.7363C10.1692 11.1531 9.9304 11.5724 9.7024 11.9896C9.474 12.4085 9.2488 12.8395 9.0292 13.2783C8.778 12.5719 8.558 11.8771 8.3712 11.2017ZM24.146 15.854C24.712 14.4912 25.1808 13.1422 25.542 11.8345C28.3032 12.9201 30 14.4412 30 15.8545C30 17.2678 28.3032 18.7888 25.542 19.8746C25.1804 18.5665 24.712 17.217 24.146 15.854ZM6.4568 19.8741C3.6964 18.7884 2 17.2674 2 15.8545C2 14.4417 3.6964 12.9206 6.4564 11.8348C6.8176 13.143 7.286 14.4921 7.852 15.8549C7.2864 17.2173 6.818 18.5665 6.4568 19.8741ZM21.5812 20.9732C21.8284 20.556 22.0676 20.1366 22.2952 19.7194C22.524 19.3004 22.7492 18.869 22.9688 18.4302C23.22 19.1375 23.44 19.8327 23.6272 20.5081C22.9752 20.687 22.2908 20.843 21.5812 20.9732ZM8.3716 20.5073C8.5584 19.8323 8.7784 19.1379 9.0292 18.4315C9.2484 18.8699 9.4736 19.3008 9.702 19.7194C9.9296 20.1366 10.1684 20.5555 10.416 20.9728C9.7068 20.8422 9.0228 20.6866 8.3716 20.5073ZM9.7896 29.2171C9.42 29.2171 9.0952 29.1332 8.8244 28.9676C8.3484 28.6763 8.004 28.1155 7.8016 27.3001C7.4692 26.0738 7.5068 24.4588 7.8888 22.5878C9.1592 22.9387 10.5256 23.2033 11.9588 23.3748C12.7888 24.567 13.6572 25.6648 14.546 26.6453C12.74 28.3078 11.0612 29.2176 9.7896 29.2171ZM20.0392 23.3757C21.4728 23.2037 22.8396 22.9395 24.1104 22.5887C24.5524 24.6316 24.5872 26.26 24.1972 27.3004C23.9952 28.1146 23.6516 28.6745 23.1764 28.9646C22.9052 29.1301 22.5804 29.2141 22.2112 29.2141C20.9392 29.2141 19.26 28.3048 17.4544 26.6449C18.3424 25.6652 19.21 24.5678 20.0392 23.3757ZM16 25.173C15.552 24.6782 15.1064 24.1476 14.668 23.5869C15.116 23.6042 15.5616 23.6127 16 23.6127C16.438 23.6127 16.8832 23.6042 17.3308 23.5869C16.8928 24.1476 16.4476 24.6782 16 25.173Z" fill="#4E7AB5"/>
<path d="M18.5999 15.8545C18.5999 17.4032 17.4371 18.6562 15.9999 18.6562C14.5627 18.6562 13.3999 17.4032 13.3999 15.8545C13.3999 14.3059 14.5627 13.053 15.9999 13.053C17.4371 13.053 18.5999 14.3059 18.5999 15.8545Z" fill="#8BB7F0"/>
<path d="M16.0002 18.8716C14.4566 18.8716 13.2002 17.5182 13.2002 15.8545C13.2002 14.1908 14.4566 12.8374 16.0002 12.8374C17.5438 12.8374 18.8002 14.1908 18.8002 15.8545C18.8002 17.5182 17.5438 18.8716 16.0002 18.8716ZM16.0002 13.2684C14.6766 13.2684 13.6002 14.4283 13.6002 15.8545C13.6002 17.2807 14.6766 18.4406 16.0002 18.4406C17.3238 18.4406 18.4002 17.2807 18.4002 15.8545C18.4002 14.4283 17.3238 13.2684 16.0002 13.2684Z" fill="#4E7AB5"/>
</g>
<defs>
<clipPath id="clip0_496_248">
<rect width="32" height="32" fill="white"/>
</clipPath>
</defs>
</svg>
