<svg width="32" height="33" viewBox="0 0 32 33" fill="none" xmlns="http://www.w3.org/2000/svg">
<g clip-path="url(#clip0_496_262)">
<path d="M32 0.926025H0L2.82353 29.5576L16 32.926L29.1765 29.5576L32 0.926025Z" fill="#0277BD"/>
<path d="M16 3.45239V30.3156L26.5412 27.6208L28.8941 3.45239H16Z" fill="#039BE5"/>
<path d="M24.5647 7.66284H16V11.0313H20.6118L20.3294 14.3997H16V17.7681H20.1412L19.8588 21.5576L16 22.7365V26.2734L23.4353 24.0839L24.0941 14.3997L24.5647 7.66284Z" fill="white"/>
<path d="M16.0001 7.66284V11.0313H7.62366L7.34131 7.66284H16.0001ZM11.6707 14.3997L11.859 17.7681H16.0001V14.3997H11.6707ZM12.0472 19.4523H8.28249L8.56484 24.0839L16.0001 26.2734V22.7365L12.1413 21.5576L12.0472 19.4523Z" fill="#EEEEEE"/>
</g>
<defs>
<clipPath id="clip0_496_262">
<rect width="32" height="33" fill="white"/>
</clipPath>
</defs>
</svg>
