<svg width="32" height="33" viewBox="0 0 32 33" fill="none" xmlns="http://www.w3.org/2000/svg">
<g clip-path="url(#clip0_496_269)">
<path d="M0 32.926V0.926025H32V32.926H0Z" fill="#FFD600"/>
<path d="M21.8115 25.7678C22.4266 26.7669 23.095 27.7242 24.511 27.7242C25.7004 27.7242 26.3244 27.1331 26.3244 26.3153C26.3244 25.3367 25.679 24.9891 24.3706 24.4193L23.6533 24.1136C21.583 23.2353 20.2061 22.1349 20.2061 19.8104C20.2061 17.6682 21.8461 16.038 24.4088 16.038C26.2337 16.038 27.5448 16.67 28.4906 18.3251L26.2559 19.7536C25.7644 18.8753 25.2328 18.5296 24.4088 18.5296C23.5679 18.5296 23.0355 19.0602 23.0355 19.7536C23.0355 20.6104 23.5688 20.9571 24.7999 21.4878L25.5173 21.7936C27.9573 22.8327 29.3333 23.894 29.3333 26.2798C29.3333 28.8504 27.303 30.2593 24.5777 30.2593C21.9119 30.2593 20.3981 28.9216 19.5555 27.2656L21.8115 25.7678ZM11.5128 25.8407C11.9626 26.646 12.6461 27.2656 13.6293 27.2656C14.5697 27.2656 15.111 26.894 15.111 25.4496V16.0371H18.0737V25.9047C18.0737 28.8976 16.3377 30.2593 13.8026 30.2593C11.5119 30.2593 9.85859 28.7073 9.18481 27.2656L11.5128 25.8407Z" fill="#000001"/>
</g>
<defs>
<clipPath id="clip0_496_269">
<rect width="32" height="33" fill="white"/>
</clipPath>
</defs>
</svg>
